<svg version="1.2" xmlns="http://www.w3.org/2000/svg" viewBox="0 0 651 648" width="651" height="648"><style>.a{opacity:.29;fill:#474646}.b{opacity:.99}.c{opacity:.15;fill:#3a3a39}.d{opacity:.16;fill:#494949}.e{opacity:.21;fill:#5d5d5c}</style><path class="a" d="m437.5 577.7c3.3 0.2 8.2 0.2 11 0 2.7-0.2 0-0.3-6-0.3-6.1 0-8.3 0.1-5 0.3z"/><path fill-rule="evenodd" class="b" d="m299.5 0.1c15.1-0.1 24.2 0.3 26.5 1 1.9 0.7 5 2.2 6.7 3.5 1.8 1.3 4.3 4.3 7.8 10.9l0.3 280c0.2 241.7 0 280.6-1.2 284.5-1 3-3.1 6-6.3 9-2.7 2.5-6.7 5.1-8.9 5.7-2.1 0.7-8.4 1.3-13.9 1.3-5.5 0-15.9-0.5-23-1-7.2-0.6-17.5-1.8-23-2.6-5.5-0.9-16.3-2.9-24-4.6-7.7-1.7-18.7-4.5-35-9.6l-9.5 5.3c-5.2 2.9-26.6 14.2-47.5 25.2-20.9 11.1-45.4 24-54.5 28.8-9.1 4.8-18.5 9.1-21 9.7-3.4 0.7-5.8 0.6-10-0.5-4.2-1.2-6.5-2.6-9.8-6.1-2.3-2.5-4.7-5.7-5.2-7.1-0.6-1.4-1-4.8-1-7.5 0-2.8 2.4-18.2 5.4-34.3 3-16 8.5-45.6 18.7-102.2l-2.3-2.6c-1.3-1.5-5.2-6.2-8.7-10.5-3.5-4.4-9.4-12.4-13.1-17.9-3.6-5.5-7.8-12-9.2-14.5-1.4-2.5-4.9-9-7.6-14.5-2.7-5.5-6.9-14.5-9.1-20-2.3-5.5-5.9-15.6-8.1-22.5-2.1-6.9-4.7-16.8-5.8-22-1.2-5.2-3.1-16.3-4.3-24.5-1.9-12.7-2.3-19.1-2.3-41 0-19.1 0.5-29.3 1.8-38.5 0.9-6.9 2.8-17.9 4.1-24.5 1.3-6.6 4.3-18.1 6.5-25.5 2.3-7.4 5.8-17.6 7.7-22.5 1.9-5 5.9-14 8.8-20 2.9-6.1 8.4-16.2 12.2-22.5 3.8-6.3 10-15.8 13.7-21 3.8-5.2 10.3-13.5 14.5-18.5 4.2-4.9 12.6-13.9 18.6-20 6.1-6 16.9-15.7 24-21.4 7.2-5.8 17.3-13.3 22.5-16.7 5.2-3.4 14-8.7 19.5-11.8 5.5-3.1 15.6-8.1 22.5-11.2 6.9-3 19-7.7 27-10.4 8-2.7 19.2-6 25-7.4 5.8-1.3 15-3.1 20.5-4 5.5-0.9 13.8-2 18.5-2.5 4.7-0.5 18.8-0.9 31.5-1zm-40 37c-4.4 0.7-13.2 2.4-19.5 4-6.3 1.5-16.9 4.6-23.5 6.9-6.6 2.3-19.7 7.9-29 12.5-9.8 4.8-22.9 12.2-31 17.6-7.7 5.2-17.6 12.3-22 15.9-4.4 3.5-12.4 10.7-17.9 16-5.4 5.2-13.6 14-18.3 19.5-4.6 5.5-12.4 15.8-17.2 23-4.8 7.1-11.7 18.8-15.3 26-3.7 7.1-8.7 18.2-11.1 24.5-2.5 6.3-6.1 16.9-8 23.5-2 6.6-4.2 15.6-5.1 20-0.8 4.4-1.9 11.1-2.5 15-0.6 3.8-1.6 12.2-2.2 18.5-0.8 7.2-1 17.4-0.5 27.5 0.3 8.8 1.3 20.9 2 27 0.8 6 2.4 15.5 3.6 21 1.2 5.5 4.4 16.7 7.1 25 2.7 8.2 8 21.3 11.8 29 3.7 7.7 9.4 18.3 12.6 23.5 3.2 5.2 8.3 12.9 11.4 17 3.1 4.1 8.9 11.3 12.9 16 4.8 5.7 7.5 9.7 7.9 12 0.3 1.9 0.1 6.6-0.6 10.5-0.6 3.8-2.7 15.5-4.7 26-1.9 10.4-4.1 21.9-4.9 25.5-0.8 3.6-3.8 19-6.7 34.2-2.9 15.2-4.9 28.1-4.5 28.5 0.4 0.4 2 0.1 3.5-0.8 1.5-0.9 20-10.7 41.2-21.6 21.2-11 45.7-23.7 54.5-28.2 8.8-4.5 17.8-8.5 20-8.8 3-0.4 7.1 0.4 16 3 6.6 2 16.7 4.7 22.5 6.1 5.8 1.3 15 3.1 20.5 4 5.5 0.9 13.8 2 18.5 2.6 4.7 0.5 12.1 1 16.5 1h8c-1.2-274.7-1.5-393.1-1.5-440.3v-85.7c-16.7 0.2-24.9 0.7-29 1.1-4.1 0.5-11.1 1.4-15.5 2zm164-32c3.8 0 9.9 0.4 13.5 0.9 3.6 0.6 9.4 2 13 3.2 3.6 1.1 9.2 3.4 12.5 5.1 3.3 1.6 8.7 4.8 12 7 3.3 2.2 8.9 6.4 12.5 9.3 3.6 2.9 9.2 8.3 12.5 12 3.3 3.8 7.6 8.9 13.2 15.9l9.9 0.7c5.4 0.4 13.3 1.7 17.4 2.8 4.1 1.2 11.1 4 15.5 6.3 4.4 2.4 10.7 6.3 14 8.8 3.3 2.6 8.7 7.5 11.9 11 3.2 3.5 7.6 8.9 9.6 11.9 2.1 3 5.1 8.2 6.7 11.5 1.7 3.3 4.3 9.8 5.9 14.5 2.4 7.5 2.8 10.3 3.4 38l4.7 4.8c2.7 2.7 6.5 7.7 8.6 11.3 2.1 3.5 4.8 9.5 6 13.4 1.8 5.7 2.2 9.3 2.2 20 0 8-0.5 14.2-1.3 16.2-1.2 3.2-1 3.5 4 9.7 2.9 3.6 6.9 9.1 8.8 12.3 1.9 3.2 5 10.3 6.9 15.8 3.3 9.4 3.5 10.9 3.9 25.5 0.3 13.1 0.1 16.9-1.7 24.5-1.2 4.9-3.7 12.4-5.7 16.5-2 4.1-5 9.5-6.6 12-1.7 2.5-5.5 7-13.9 15.5l3.4 7c1.9 3.8 4.2 9.2 5 12 0.9 2.7 2.1 7.7 2.7 11 0.5 3.3 1 10.9 1 17 0 7.8-0.6 13.4-2 19-1.1 4.4-3.5 11.1-5.3 15-1.8 3.8-5.3 9.9-7.7 13.5-2.4 3.6-7.3 9.6-10.9 13.4-3.6 3.7-9.3 8.8-12.6 11.1-3.3 2.4-8.7 5.7-12 7.3-3.3 1.7-9.6 4.3-14 5.7-4.9 1.7-11.4 3-25.7 4l-2.2 7.5c-1.2 4.1-3.4 10-5 13-1.6 3-4.9 8.6-7.4 12.5-2.5 3.8-8.5 10.8-13.2 15.5-4.7 4.7-11.9 10.7-16 13.5-4.1 2.7-10.7 6.4-14.5 8.1-3.9 1.8-11.1 4.5-16 6-8.4 2.6-10.2 2.8-27.5 2.8-17.7 0.1-18.9-0.1-27-2.8-4.7-1.5-11.9-4.5-16-6.7-4.1-2.1-10.2-6-13.4-8.6-3.3-2.6-8.6-8-11.9-11.8-3.2-3.9-7.6-10.6-9.8-15-2.2-4.4-4.9-11.8-8.4-25v-446l2.3-7.5c1.3-4.1 4-10.4 5.9-14 2.2-4 6.7-9.5 11.7-14.5 5.9-5.8 10.3-9 15.7-11.7 4-2 10.1-4.3 13.4-5.1 3.3-0.9 7.1-1.8 8.5-2 1.4-0.2 5.6-0.5 9.5-0.6zm-14 37.1c-1.7 0.9-5.1 3.8-7.6 6.4-2.5 2.7-5.1 6-5.9 7.4-0.7 1.4-1.9 4.5-2.6 7-0.7 2.5-1.5 6.5-1.9 9-0.4 2.5-0.3 10.4 0.1 17.7l0.9 13.2c9.3 2.4 20.3 5.6 30.5 8.6 10.2 3 19.6 6.3 21 7.3 1.4 1 3.3 3.4 4.2 5.3 1 1.9 1.8 5.2 1.8 7.4 0 2.3-1 5.7-2.3 7.9-1.2 2.1-3.8 4.7-5.7 5.7-1.9 1.1-5.1 1.9-7 1.9-1.9 0-11.5-2.3-21.3-5-9.7-2.8-18.6-5-19.7-5-2 0-2 0.7-2 27v27c5.8 0 13.1-1.3 20-2.9 6.9-1.6 15.9-4.1 20-5.6 4.1-1.5 9.7-3.9 12.5-5.3 2.7-1.4 7.9-4.4 11.5-6.8 3.6-2.4 10.3-7.5 15-11.4 4.7-3.9 10.3-8.1 12.5-9.2 2.9-1.5 5.1-1.9 8-1.5 2.2 0.4 5.1 1.5 6.5 2.5 1.4 1 3.5 3.4 4.8 5.3 1.4 2.1 2.2 4.9 2.2 7.1 0 2.1-0.6 5-1.4 6.5-0.7 1.6-3.9 5-7.1 7.8-3.2 2.7-5.6 5.4-5.3 6 0.3 0.5 2.9 2.4 5.9 4.1 3 1.7 9.2 4.8 13.9 6.8 4.7 2.1 13.2 5.3 19 7.3 5.8 1.9 15.9 4.7 22.5 6.3 6.6 1.6 18.7 4.1 27 5.5 12.3 2.2 15.1 2.4 15.8 1.3 0.4-0.7 0.6-3.8 0.4-6.8-0.2-3-1.4-7.3-2.5-9.5-1.1-2.2-3.3-5.2-4.9-6.7-1.5-1.4-5.4-3.3-8.6-4.2-3.9-1.1-6.5-2.5-8.2-4.6-1.4-1.7-2.8-4.2-3.1-5.8-0.4-1.6 0.1-5.4 1.4-9.7 1.1-3.9 2.4-10.6 2.8-15 0.4-5 0.2-10.2-0.6-14-0.6-3.3-2.8-9.4-4.8-13.5-2.6-5.2-5.8-9.6-10.7-14.6-5.4-5.5-9-8-15.5-11.2-4.7-2.3-11.3-4.7-14.6-5.4-5-1-6.7-1.1-8.8-0.1-1.4 0.7-3.3 2.8-4.2 4.5-1.4 2.7-1.5 4.2-0.6 8.3 0.7 3.1 0.8 6.3 0.2 8.5-0.5 1.9-2.4 4.9-4.4 6.7-2.1 2-5.1 3.6-7.4 3.9-2 0.3-5.1 0.4-6.7 0-1.7-0.3-4.2-1.4-5.8-2.6-1.5-1.1-3.3-3.2-4.1-4.8-0.7-1.5-2.1-6.1-3-10.2-1-4.9-1.5-11.6-1.4-19.5 0.2-11.7 0.1-12.2-3-18-1.7-3.3-5.3-8.5-8-11.5-2.7-3-7.1-7.1-9.8-9.2-2.7-2-7.6-5-10.9-6.6-3.3-1.6-8.4-3.5-11.3-4.1-2.8-0.6-7.8-1.1-11-1-3.1 0-7.5 0.6-9.7 1.3-2.2 0.7-5.4 2-7 2.8zm31 172c-5.5 2.2-14.3 5.1-19.5 6.5-5.2 1.4-13.8 3.3-19 4.2l-9.5 1.6-0.6 85c10.5 3.5 17 6.7 21.1 9.5 4.1 2.7 13.1 10 20 16.2 6.9 6.2 16.1 14.1 20.5 17.4 4.4 3.4 11.1 7.8 15 9.9l7 3.7c9.3-4.3 14.7-6.6 18-7.9 3.3-1.3 6.8-2.3 7.7-2.3 1 0 3.6 0.9 5.8 2 2.2 1.1 4.9 3.5 6 5.2 1.1 1.9 2 5.1 2 7.3 0 2.2-0.8 5.3-1.8 7-1 1.6-4.6 5.1-8 7.7-3.4 2.7-6.2 5-6.2 5.3 0 0.3 9.1 3.4 20.2 6.9 18.2 5.8 20.6 6.8 23.5 10 1.8 2 3.6 5.1 3.9 6.8 0.3 1.8 0.3 5.1-0.1 7.3q-0.7 4-4.4 7.6c-2.4 2.4-4.9 3.9-7.6 4.3-3.4 0.6-8.5-0.7-36.5-10l-32.5-10.7c-4.9 2.9-13.1 8.3-21.4 13.8-8.2 5.5-19.6 12.9-25.2 16.5-5.6 3.6-12.5 8.7-15.3 11.5-2.9 2.7-6.3 7.2-7.6 10-1.3 2.7-3 7.2-3.7 10-0.7 2.7-1.3 9-1.3 14 0 5 0.7 11.7 1.6 15 0.9 3.3 2.4 7.6 3.4 9.5 1 1.9 3.6 5.9 5.9 8.7 2.2 2.9 6.9 7.1 10.3 9.3 3.5 2.2 9.2 5.1 12.8 6.3 5.3 1.8 8.8 2.2 18.5 2.2 10.6 0 13-0.3 21-3 5.9-1.9 11.9-4.8 17.5-8.6 4.7-3.1 10.9-8.3 13.9-11.5 2.9-3.3 6.6-8.6 8.2-11.9 1.8-3.7 2.9-7.6 2.9-10.3 0-2.3-0.6-5.4-1.2-7-0.7-1.5-3.4-6.2-6-10.5-2.7-4.2-5.5-9.4-6.3-11.5-0.9-2-1.5-5.7-1.5-8.2 0-2.6 0.9-5.8 1.9-7.5 1.1-1.7 3.8-4 6-5.3 2.3-1.2 5.4-2.2 7.1-2.2 1.6 0 4.5 0.7 6.2 1.6 1.8 0.9 6 4.5 9.3 7.9 4.8 4.9 7 6.4 11 7.5 3.3 0.9 8.3 1.2 15 0.8 8.2-0.4 11.3-1 17.5-3.6 4.1-1.7 10.3-5.2 13.7-7.7 3.5-2.5 8.1-6.9 10.4-9.8 2.2-2.8 5.3-7.9 6.9-11.2 1.5-3.3 3.3-8.5 4-11.5 0.7-3.1 1.1-9.4 0.8-14.5-0.3-7.1-1-10.3-3.2-15-1.5-3.3-3.9-7.3-5.4-8.8-1.7-1.8-5.2-3.5-9.5-4.7-4.3-1.3-7.6-3-9.2-4.8-1.4-1.5-3.1-4.3-3.6-6.2-0.6-1.9-0.8-5-0.5-6.8 0.3-1.7 2.1-4.8 3.8-6.7 2.4-2.6 4.7-3.9 8.3-4.7 2.7-0.6 6.7-1.9 8.7-2.9 2.1-1.1 6.8-4.7 10.4-8.2 5-4.7 7.6-8.2 10.5-14.2 2.7-5.5 4.3-10.5 5.1-16 0.9-6.2 0.9-9.8 0-16-0.8-5.4-2.4-10.4-4.9-15.5-2.6-5.2-5.8-9.6-10.7-14.6-5-4.9-9.2-8.1-14.1-10.5-6-2.9-8.3-3.4-16-3.8-7.7-0.3-10.2 0-17 2.3-4.4 1.4-10.9 4.3-14.4 6.3-3.4 2.1-9.9 6.6-14.2 10-4.3 3.5-10.5 9.5-13.7 13.3-3.1 3.9-8.1 10.9-11 15.8-2.9 4.8-6.2 11.6-7.3 15.2-1.1 3.6-2.6 7.5-3.4 8.7-0.8 1.3-3 3.2-4.8 4.3-2 1.3-5 2-8.2 2-3.6 0-6-0.6-8.5-2.2-1.9-1.3-4.3-3.9-5.2-5.8-1-1.9-1.8-5.1-1.8-7 0-1.9 0.8-6.4 1.9-10 1.1-3.6 3.3-9.4 4.9-13 1.6-3.6 5.7-10.7 9.1-15.8 3.3-5 9.9-13.1 14.5-18 4.6-4.8 10.3-10.1 12.5-11.7 2.2-1.7 4.1-3.3 4.1-3.8 0-0.4-2.1-1.6-4.8-2.8-2.6-1.1-8.3-3.7-12.7-5.8-4.4-2.1-11.6-6-16-8.9-4.4-2.8-9.4-6.5-11-8.2-1.7-1.7-3.7-3-4.5-3-0.8 0.1-3.3 1-5.5 2.2-2.2 1.1-8.5 3.9-14 6zm-48.6 170.4c0.1 24.9 0.5 38.4 1.1 38.4 0.5 0 5.4-3.1 10.7-7 5.4-3.8 17-11.2 25.8-16.4 8.8-5.3 16.6-9.9 17.4-10.3 1-0.6-0.6-2-5.5-4.9-3.8-2.3-10.7-7-15.4-10.5-4.7-3.4-13-10.7-18.5-16.2-5.7-5.7-11.2-10.3-12.8-10.8l-2.9-0.8z"/><path class="c" d="m391.3 95.5c0 3.8 0.2 5.2 0.4 3 0.2-2.2 0.2-5.4 0-7-0.2-1.7-0.4 0.1-0.4 4zm-0.3 68.5v28c3.8-0.2 4-0.3 2.7-0.6-1.6-0.4-1.7-2.5-1.7-27.4 0-20.7 0.3-27.1 1.2-27.4 0.7-0.3 0.5-0.5-0.5-0.5-1.6-0.1-1.7 1.9-1.7 27.9zm0.2 221.2c-0.1 26 0.1 39.8 0.8 39.8 0.5 0 1.2-0.5 1.5-1 0.3-0.6 0-1-0.5-1-0.6 0-1.1-13.8-1.3-38.8l-0.2-38.7z"/><path class="d" d="m304.5 84c0 27.8 0.1 39 0.2 25 0.2-14 0.2-36.8 0-50.5-0.1-13.8-0.2-2.3-0.2 25.5zm175.8 11.5c0 4.4 0.2 6 0.4 3.5 0.2-2.5 0.2-6.1 0-8-0.2-1.9-0.4 0.1-0.4 4.5zm-89.1 173.2c0.1 23.6 0.4 36 0.5 27.8 0.2-8.3 0.4-27.5 0.5-42.8 0.2-15.2 0-27.7-0.5-27.7-0.4 0-0.6 19.2-0.5 42.7z"/><path class="e" d="m304.5 224.5c0 50 0.1 70.3 0.2 45 0.2-25.3 0.2-66.3 0-91-0.1-24.8-0.2-4.1-0.2 46z"/><path class="b" d="m114.5 225.9c-1.7 1.1-3.8 3-4.8 4.3-1 1.2-2.2 4-2.7 6-0.7 2.5-0.7 5.2 0 7.8 0.5 2.2 2.2 5.4 3.7 7.2 1.6 1.7 4.3 3.7 6 4.5 2.6 1 15.9 1.3 64.8 1.3 49.1 0 62.2-0.3 64.7-1.3 1.8-0.8 4.8-3 6.5-5 1.9-2.2 3.6-5.3 3.9-7.5 0.3-2 0.3-5.2 0-7-0.3-1.7-1.8-4.6-3.4-6.3-1.5-1.8-3.9-3.8-5.5-4.5-2.2-1.1-14.6-1.4-66.5-1.4-61 0-63.8 0.1-66.7 1.9zm1.6 69.5c-1.9 0.7-4.5 2.7-5.8 4.5-1.2 1.7-2.8 4.8-3.4 6.8-0.8 2.8-0.8 5 0 8 0.6 2.4 2.3 5.7 3.8 7.4 1.6 1.8 4 3.8 5.5 4.5 2.3 1.1 14.5 1.4 65.3 1.4 51 0 63-0.3 65.2-1.4 1.6-0.7 4.3-3 6-5 1.9-2.1 3.6-5.2 3.9-7.4 0.3-2 0.3-5.1 0-6.7-0.3-1.7-1.5-4.5-2.6-6.3-1.1-1.8-3.9-4.1-6.3-5.2-4-1.9-6.5-2-66.2-1.9-49.1 0-62.7 0.3-65.4 1.3zm-2.1 72.8c-1.9 1.3-4.5 4.3-5.8 6.8-1.9 3.6-2.3 5.4-1.8 9 0.3 2.5 1.6 6.1 2.8 8 1.3 1.9 3.9 4.5 5.8 5.7l3.5 2.4c114.8-0.1 126-0.3 128.2-1.5 1.6-0.8 4-2.7 5.5-4.3 1.5-1.5 3.2-4 3.7-5.6 0.6-1.5 1.1-4.3 1.1-6.2 0-1.9-0.9-5.3-2-7.5-1.1-2.2-3.7-5.1-5.8-6.5l-3.7-2.5h-128.1z"/></svg>